<?xml version="1.0" encoding="iso-8859-1"?>
<!-- Generator: Adobe Illustrator 16.0.0, SVG Export Plug-In . SVG Version: 6.00 Build 0)  -->
<!DOCTYPE svg PUBLIC "-//W3C//DTD SVG 1.1//EN" "http://www.w3.org/Graphics/SVG/1.1/DTD/svg11.dtd">
<svg version="1.1" id="Capa_1" xmlns="http://www.w3.org/2000/svg" xmlns:xlink="http://www.w3.org/1999/xlink" x="0px" y="0px"
	 width="612px" height="612px" viewBox="0 0 612 612" style="enable-background:new 0 0 612 612;" xml:space="preserve">
<g>
	<g id="Trash_1_">
		<g>
			<path d="M325.125,229.5h-38.25v267.75h38.25V229.5z M229.5,229.5h-38.25v267.75h38.25V229.5z M592.875,114.75H459V19.125
				C459,8.568,450.432,0,439.875,0h-267.75C161.568,0,153,8.568,153,19.125v95.625H19.125C8.568,114.75,0,123.318,0,133.875
				S8.568,153,19.125,153H76.5v439.875C76.5,603.432,85.068,612,95.625,612h420.75c10.557,0,19.125-8.568,19.125-19.125V153h57.375
				c10.557,0,19.125-8.568,19.125-19.125S603.432,114.75,592.875,114.75z M191.25,38.25h229.5v76.5h-229.5V38.25z M497.25,573.75
				h-382.5V153h382.5V573.75z M420.75,229.5H382.5v267.75h38.25V229.5z"/>
		</g>
	</g>
</g>
<g>
</g>
<g>
</g>
<g>
</g>
<g>
</g>
<g>
</g>
<g>
</g>
<g>
</g>
<g>
</g>
<g>
</g>
<g>
</g>
<g>
</g>
<g>
</g>
<g>
</g>
<g>
</g>
<g>
</g>
</svg>
